# xmcd
#
# Track frame offsets:
#	150
#	15861
#	32663
#	56540
#	72371
#	89395
#	112609
#	136743
#	164587
#	182358
#	200487
#	224143
#	244396
#	274793
#	289699
#	310751
#	332485
#
# Disc length: 4815 seconds
#
# Revision: 1
# Processed by: cddbd v1.5.2PL0 Copyright (c) Steve Scherf et al.
# Submitted via: EasyCDDAExtractor 8.2.3.1
#
DISCID=ed12cd11
DTITLE=Various Artist - Blues On the Road  CD-4
DYEAR=2003
DGENRE=Blues
TTITLE0=BLUES BAND - I'll Be Home Again Tonight
TTITLE1=BO WILSON BAND - Hard Time in the Plenty
TTITLE2=TONY SPINNER - Goodbye
TTITLE3=STEVE BAILEY - Pocket Full of Money
TTITLE4=BOB MARGOLIN - Ice of Fire
TTITLE5=KEVIN THORPE - Blow By Blow
TTITLE6=TINO GONSALES - Lost Two Dollars
TTITLE7=JOHN MAYALL - So Many Roads
TTITLE8=BIG ED SULLIVAN - Swamp Stompin'
TTITLE9=SCOTT HOLT - Dark of the Night
TTITLE10=CHRIS ANDERSON - Old Friend
TTITLE11=COCO MONTOYA - Women Have a Way with a Full
TTITLE12=ROGER HURRYCANE - Hurrycane Blues
TTITLE13=AMOS GARRETT - Hair of the Dog
TTITLE14=SONNY LANDRETH - Broken Hearted Road
TTITLE15=CUP-A-JO - Straight Up
TTITLE16=DAVE GOODMAN and GARTH WEBBER - First Come, First Served
EXTD=
EXTT0=
EXTT1=
EXTT2=
EXTT3=
EXTT4=
EXTT5=
EXTT6=
EXTT7=
EXTT8=
EXTT9=
EXTT10=
EXTT11=
EXTT12=
EXTT13=
EXTT14=
EXTT15=
EXTT16=
PLAYORDER=
